<?xml version="1.0" encoding="UTF-8"?>
<svg width="100" height="100" viewBox="0 0 100 100" fill="none" xmlns="http://www.w3.org/2000/svg">
    <!-- Background Circle -->
    <circle cx="50" cy="50" r="50" fill="#6c757d"/>
    
    <!-- User Icon -->
    <!-- Head -->
    <circle cx="50" cy="35" r="12" fill="white" opacity="0.9"/>
    
    <!-- Body -->
    <path d="M50 50C42 50 36 56 36 64V75C36 78 38 80 41 80H59C62 80 64 78 64 75V64C64 56 58 50 50 50Z" fill="white" opacity="0.9"/>
    
    <!-- Additional styling for better appearance -->
    <defs>
        <style>
            .user-avatar {
                filter: drop-shadow(0 2px 4px rgba(0,0,0,0.1));
            }
        </style>
    </defs>
    <g class="user-avatar">
        <!-- Head with better styling -->
        <circle cx="50" cy="35" r="11" fill="#ffffff" stroke="rgba(108,117,125,0.2)" stroke-width="0.5"/>
        
        <!-- Body with better styling -->
        <path d="M50 49C42.5 49 36.5 55 36.5 63V74C36.5 76.5 38 78 40.5 78H59.5C62 78 63.5 76.5 63.5 74V63C63.5 55 57.5 49 50 49Z" fill="#ffffff" stroke="rgba(108,117,125,0.2)" stroke-width="0.5"/>
    </g>
</svg>