<?xml version="1.0" encoding="UTF-8"?>
<svg width="24" height="24" viewBox="0 0 24 24" fill="none" xmlns="http://www.w3.org/2000/svg">
    <!-- Notification Bell Icon -->
    <path d="M12 2C13.1 2 14 2.9 14 4C14 4.74 13.6 5.39 13 5.73V7C16.86 7.5 20 10.9 20 15V18H4V15C4 10.9 7.14 7.5 11 7V5.73C10.4 5.39 10 4.74 10 4C10 2.9 10.9 2 12 2Z" fill="currentColor" fill-opacity="0.7"/>
    <path d="M9 21C9 22.1 9.9 23 11 23H13C14.1 23 15 22.1 15 21H9Z" fill="currentColor" fill-opacity="0.7"/>
    <!-- Bell clapper -->
    <circle cx="12" cy="14" r="1" fill="currentColor" fill-opacity="0.9"/>
</svg>